<?xml version="1.0" encoding="UTF-8" standalone="no"?><!DOCTYPE svg PUBLIC "-//W3C//DTD SVG 1.1//EN" "http://www.w3.org/Graphics/SVG/1.1/DTD/svg11.dtd"><svg width="100%" height="100%" viewBox="0 0 285 285" version="1.1" xmlns="http://www.w3.org/2000/svg" xmlns:xlink="http://www.w3.org/1999/xlink" xml:space="preserve" xmlns:serif="http://www.serif.com/" style="fill-rule:evenodd;clip-rule:evenodd;stroke-linejoin:round;stroke-miterlimit:1.41421;"><circle cx="142.5" cy="142.5" r="142.5" style="fill:#4545da;"/><g><circle cx="166.357" cy="162.279" r="51.75" style="fill:#6666b9;"/><path d="M114.775,161.885l22.008,0c6.797,0 12.129,-0.633 15.996,-1.899c3.867,-1.265 6.95,-3.047 9.246,-5.343c3.235,-3.235 5.754,-7.582 7.559,-13.043c1.805,-5.461 2.707,-12.082 2.707,-19.864c0,-10.781 -1.77,-19.066 -5.309,-24.855c-3.539,-5.789 -7.839,-9.668 -12.902,-11.637c-3.644,-1.401 -9.5,-2.105 -17.648,-2.109l-21.657,0l0,78.75Zm23.555,12.164l-37.476,0l0,-90.914l-33.961,0l0,-12.164l69.75,0c2.568,0 8.311,0.23 8.523,0.241c3.985,0.219 7.259,0.636 9.828,1.235c5.906,1.36 10.945,3.821 15.117,7.383c5.438,4.594 9.504,10.465 12.2,17.613c2.695,7.149 4.043,15.317 4.043,24.504c0,7.828 -0.915,14.766 -2.743,20.813c-1.828,6.047 -4.172,11.051 -7.031,15.011c-2.859,3.961 -5.988,7.079 -9.387,9.352c-3.398,2.273 -7.5,3.996 -12.304,5.168c-4.784,1.167 -10.275,1.753 -16.559,1.758Z"/></g></svg>