<?xml version="1.0" encoding="UTF-8" standalone="no"?><!DOCTYPE svg PUBLIC "-//W3C//DTD SVG 1.1//EN" "http://www.w3.org/Graphics/SVG/1.1/DTD/svg11.dtd"><svg width="100%" height="100%" viewBox="0 0 580 581" version="1.1" xmlns="http://www.w3.org/2000/svg" xmlns:xlink="http://www.w3.org/1999/xlink" xml:space="preserve" xmlns:serif="http://www.serif.com/" style="fill-rule:evenodd;clip-rule:evenodd;stroke-linejoin:round;stroke-miterlimit:1.41421;"><path id="path1009" d="M336,46c0.008,-0.337 0.011,-0.674 0.011,-1.011c0,-24.313 -19.704,-44.455 -44.011,-44.989l-2,0c-25,0 -45,20 -45,46l0,490c0,24.686 20.314,45 45,45c25,0 46,-20 46,-45l0,-490Z" style="fill:#7777ef;fill-rule:nonzero;"/><path id="path1011" d="M535,336c24.686,0 45,-20.314 45,-45c0,-26 -20,-46 -45,-46l-489,0c-26,0 -46,20 -46,46c0,25 20,45 46,45l489,0Z" style="fill:#7777ef;fill-rule:nonzero;"/></svg>