<?xml version="1.0" encoding="UTF-8" standalone="no"?><!DOCTYPE svg PUBLIC "-//W3C//DTD SVG 1.1//EN" "http://www.w3.org/Graphics/SVG/1.1/DTD/svg11.dtd"><svg width="100%" height="100%" viewBox="0 0 4184 4990" version="1.1" xmlns="http://www.w3.org/2000/svg" xmlns:xlink="http://www.w3.org/1999/xlink" xml:space="preserve" xmlns:serif="http://www.serif.com/" style="fill-rule:evenodd;clip-rule:evenodd;stroke-linejoin:round;stroke-miterlimit:1.41421;"><path d="M4079,188l-1129,0l0,-83c0,-53 -53,-105 -105,-105l-1506,0c-52,0 -105,52 -105,105l0,83l-1129,0c-57.601,0 -105,47.399 -105,105l0,125c0,57.601 47.399,105 105,105l3974,0c57.601,0 105,-47.399 105,-105l0,-125c0,-57.601 -47.399,-105 -105,-105Zm-345,471l-3274,0c-0.669,-0.005 -1.338,-0.008 -2.008,-0.008c-143.524,0 -261.905,117.487 -262.992,261.008c0.198,14.085 1.535,28.131 4,42l512,3797c10.858,129.837 120.71,230.936 251,231l2260,0c130.711,-4.202 240.948,-101.768 261,-231l502,-3797c2.46,-13.87 3.798,-27.915 4,-42c0,-140 -114,-257 -255,-261Zm-2155,3546c0,51.567 -42.433,94 -94,94l-177,0c-42,0 -84,-42 -84,-94l0,-2761c0,-46 38,-84 84,-84l177,0c53,0 94,31 94,84l0,2761Zm691,0c0,52 -42,94 -84,94l-178,0c-51,0 -94,-42 -94,-94l0,-2761c0,-53 42,-84 94,-84l178,0c46,0 84,38 84,84l0,2761Zm701,0c0,52 -43,94 -94,94l-178,0c-42,0 -84,-42 -84,-94l0,-2761c0,-46 38,-84 84,-84l178,0c52,0 94,31 94,84l0,2761Z" style="fill:#4545da;fill-rule:nonzero;"/></svg>