<?xml version="1.0" encoding="utf-8"?>
<!-- Generator: Adobe Illustrator 16.0.0, SVG Export Plug-In . SVG Version: 6.00 Build 0)  -->
<!DOCTYPE svg PUBLIC "-//W3C//DTD SVG 1.1//EN" "http://www.w3.org/Graphics/SVG/1.1/DTD/svg11.dtd">
<svg version="1.1"
	 id="svg1013" xmlns:inkscape="http://www.inkscape.org/namespaces/inkscape" xmlns:sodipodi="http://sodipodi.sourceforge.net/DTD/sodipodi-0.dtd" xmlns:svg="http://www.w3.org/2000/svg" xmlns:rdf="http://www.w3.org/1999/02/22-rdf-syntax-ns#" xmlns:cc="http://creativecommons.org/ns#" xmlns:dc="http://purl.org/dc/elements/1.1/" inkscape:version="0.92.2 (5c3e80d, 2017-08-06)" sodipodi:docname="plus.svg"
	 xmlns="http://www.w3.org/2000/svg" xmlns:xlink="http://www.w3.org/1999/xlink" x="0px" y="0px" width="595.279px"
	 height="841.891px" viewBox="0 0 595.279 841.891" enable-background="new 0 0 595.279 841.891" xml:space="preserve">
<sodipodi:namedview  id="namedview1015" objecttolerance="10" bordercolor="#666666" borderopacity="1" pagecolor="#ffffff" gridtolerance="10" guidetolerance="10" showgrid="false" inkscape:zoom="1.3390706" inkscape:cx="290" inkscape:cy="290.5" inkscape:current-layer="svg1013" inkscape:window-maximized="1" inkscape:window-y="-9" inkscape:window-x="-9" inkscape:window-height="1001" inkscape:window-width="1920" inkscape:pageshadow="2" inkscape:pageopacity="0">
	</sodipodi:namedview>
<path id="path1009" fill="#FFFFFF" d="M153.243,210.351c-17.657-18.409-46.894-19.019-65.302-1.363
	c-0.005,0.005-0.011,0.011-0.017,0.017l-1.449,1.454c-18.114,18.172-18.068,47.202,0.832,66.041l356.181,355.04
	c18.065,18.007,47.309,17.96,65.316-0.105c18.114-18.172,18.792-47.929,0.62-66.043L153.243,210.351z"/>
<path id="path1011" fill="#FFFFFF" d="M508.234,275.823c18.007-18.065,17.96-47.308-0.105-65.316
	c-18.898-18.838-47.929-18.792-66.043-0.62L87.771,565.34c-18.839,18.9-18.792,47.93,0.107,66.769
	c18.173,18.114,47.202,18.067,66.041-0.833L508.234,275.823z"/>
</svg>
